<svg xmlns="http://www.w3.org/2000/svg" width="329" height="52" viewBox="0 0 329 52"><path fill="#fff" d="M63.23 23.46c0 1.83.25 3.42.75 4.78.5 1.35 1.14 2.47 1.94 3.36.8.9 1.71 1.55 2.73 1.98a8.07 8.07 0 0 0 6.07.08 8.03 8.03 0 0 0 2.32-1.49 8.84 8.84 0 0 0 2.47-4.61h2.27a12.16 12.16 0 0 1-3.29 6.33 9.27 9.27 0 0 1-6.75 2.61c-1.64 0-3.13-.3-4.45-.89a9.38 9.38 0 0 1-3.39-2.57 11.74 11.74 0 0 1-2.16-4.11 18.89 18.89 0 0 1-.74-5.51c0-1.57.24-3.11.73-4.6.48-1.5 1.18-2.83 2.09-3.99a10.39 10.39 0 0 1 3.36-2.78A9.48 9.48 0 0 1 71.7 11c1.42 0 2.68.19 3.81.58 1.12.39 2.09.92 2.92 1.59a9.7 9.7 0 0 1 2.1 2.4 11.8 11.8 0 0 1 1.33 3.05h-2.39a8.16 8.16 0 0 0-2.86-4.02 8.38 8.38 0 0 0-4.91-1.32c-1.25 0-2.39.28-3.43.83a8.64 8.64 0 0 0-2.66 2.23c-.75.93-1.33 2.01-1.75 3.23a11.93 11.93 0 0 0-.63 3.89zm23.32 6.13c.26.81.63 1.52 1.1 2.13a5.08 5.08 0 0 0 4.07 1.95 5.13 5.13 0 0 0 4.1-1.95c.48-.61.86-1.32 1.12-2.13a8.5 8.5 0 0 0 .39-2.61c0-.93-.13-1.8-.39-2.62a6.6 6.6 0 0 0-1.12-2.12 5.37 5.37 0 0 0-1.76-1.45 4.9 4.9 0 0 0-2.34-.55c-.86 0-1.64.18-2.33.55a5.2 5.2 0 0 0-1.74 1.45c-.47.6-.84 1.31-1.1 2.12a8.6 8.6 0 0 0-.39 2.62c0 .93.13 1.8.39 2.61zm-2.04-6.1A8.64 8.64 0 0 1 86 20.65 7.1 7.1 0 0 1 91.72 18a7.34 7.34 0 0 1 5.79 2.65 8.91 8.91 0 0 1 1.53 2.84c.35 1.09.53 2.25.53 3.49 0 1.24-.18 2.4-.53 3.48a8.91 8.91 0 0 1-1.53 2.84 7.2 7.2 0 0 1-5.79 2.62A6.96 6.96 0 0 1 86 33.3a8.64 8.64 0 0 1-1.49-2.84 11.53 11.53 0 0 1-.51-3.48c0-1.24.17-2.4.51-3.49zM102 18.35h2.2v2.71a6.87 6.87 0 0 1 5.68-3.02c.81 0 1.6.25 2.37.75.77.51 1.47 1.3 2.1 2.38a7.06 7.06 0 0 1 5.84-3.17 5.58 5.58 0 0 1 3.85 1.51c.47.46.83 1.02 1.09 1.66.26.65.39 1.34.39 2.09v12.38h-2.19V24c0-.72-.11-1.32-.33-1.8a3.28 3.28 0 0 0-.85-1.14 2.84 2.84 0 0 0-1.17-.6 4.48 4.48 0 0 0-2.98.17 5.12 5.12 0 0 0-2.67 2.5c-.29.58-.43 1.2-.43 1.87v10.64h-2.2V24c0-.72-.11-1.32-.33-1.8-.22-.48-.5-.86-.84-1.14a2.91 2.91 0 0 0-1.12-.6 4.1 4.1 0 0 0-1.16-.18c-.7 0-1.37.16-2 .47a5.55 5.55 0 0 0-2.66 2.76 4.04 4.04 0 0 0-.39 1.65v10.48H102zm27 0h2.2v2.71a6.87 6.87 0 0 1 5.68-3.02c.81 0 1.6.25 2.37.75.77.51 1.47 1.3 2.1 2.38a7.06 7.06 0 0 1 5.84-3.17 5.58 5.58 0 0 1 3.85 1.51c.47.46.83 1.02 1.09 1.66.26.65.39 1.34.39 2.09v12.38h-2.19V24c0-.72-.11-1.32-.33-1.8a3.28 3.28 0 0 0-.85-1.14 2.84 2.84 0 0 0-1.17-.6 4.48 4.48 0 0 0-2.98.17 5.12 5.12 0 0 0-2.67 2.5c-.29.58-.43 1.2-.43 1.87v10.64h-2.2V24c0-.72-.11-1.32-.33-1.8-.22-.48-.5-.86-.84-1.14a2.91 2.91 0 0 0-1.12-.6 4.1 4.1 0 0 0-1.16-.18c-.7 0-1.37.16-2 .47a5.55 5.55 0 0 0-2.66 2.76 4.04 4.04 0 0 0-.39 1.65v10.48H129zm31.61 2.34a5.71 5.71 0 0 0-3.3 4.74h10.79a5.94 5.94 0 0 0-.44-2.03 5 5 0 0 0-2.8-2.75 5.84 5.84 0 0 0-2.21-.41c-.74 0-1.42.15-2.04.45zm-3.3 6.75a7.83 7.83 0 0 0 1.71 4.32 5.9 5.9 0 0 0 1.7 1.41c.66.36 1.36.54 2.12.54 2.67 0 4.39-1.15 5.18-3.44h2c-.21.9-.55 1.71-1 2.41a6.7 6.7 0 0 1-1.65 1.78 7.53 7.53 0 0 1-7.78.74 7.65 7.65 0 0 1-2.47-2.01 9.01 9.01 0 0 1-1.57-2.94 11.3 11.3 0 0 1-.55-3.54c0-1.16.18-2.27.55-3.33a8.29 8.29 0 0 1 1.57-2.77 7.74 7.74 0 0 1 2.45-1.89 7.07 7.07 0 0 1 3.23-.72c1.15 0 2.2.21 3.14.64a6.8 6.8 0 0 1 2.39 1.76 7.93 7.93 0 0 1 1.51 2.67c.35 1.03.53 2.14.53 3.33v1.04zM173 18.31h2.2v2.63c.7-.93 1.41-1.65 2.13-2.17a4.15 4.15 0 0 1 3.47-.62v2.56a3.49 3.49 0 0 0-1.1-.19 4.48 4.48 0 0 0-3.33 1.41 4.2 4.2 0 0 0-.88 1.47c-.2.55-.29 1.14-.29 1.76v10.45H173zm22 5.3c-.34-1.24-.88-2.11-1.61-2.61-.73-.5-1.7-.76-2.9-.76a5 5 0 0 0-3.94 1.94 6.4 6.4 0 0 0-1.04 2.05 9.1 9.1 0 0 0 .02 5.05c.25.84.59 1.59 1.04 2.24.44.66.99 1.19 1.64 1.59a4.49 4.49 0 0 0 3.96.27c.53-.22.98-.52 1.36-.91.38-.38.68-.83.92-1.33.23-.51.42-1.04.55-1.61h2.43a7.58 7.58 0 0 1-2.24 4.74 6.8 6.8 0 0 1-4.86 1.72 6.16 6.16 0 0 1-3.29-.83 7.27 7.27 0 0 1-2.28-2.17 9.65 9.65 0 0 1-1.33-2.99 13.12 13.12 0 0 1-.43-3.33c0-1.21.18-2.35.53-3.41a8.27 8.27 0 0 1 1.51-2.74 6.95 6.95 0 0 1 5.45-2.52c.99 0 1.88.14 2.67.43a6.1 6.1 0 0 1 3.45 2.96c.36.68.62 1.42.78 2.22zm6 12.61h2.2V18.93H201zM201 12h2.2v2.98H201zm16.49 13.82c-.31.38-.77.7-1.35.94-.59.25-1.23.47-1.93.66-.69.2-1.39.38-2.11.56-.72.18-1.38.4-1.96.66-.59.26-1.07.57-1.43.93a1.8 1.8 0 0 0-.55 1.35c0 .52.09.95.27 1.3.18.35.43.63.75.85a4.04 4.04 0 0 0 2.19.64 6.3 6.3 0 0 0 3.3-.97 8.5 8.5 0 0 0 2.82-2.94zm-11.02-2.87c.05-.85.28-1.59.69-2.22.4-.63.92-1.15 1.55-1.55.62-.4 1.32-.7 2.09-.89a9.6 9.6 0 0 1 4.75 0c.79.19 1.5.49 2.11.89.62.4 1.11.92 1.48 1.57.36.64.54 1.43.54 2.36v9.13c0 .36.14.7.42 1.01.27.3.62.46 1.03.46a3.47 3.47 0 0 0 .67-.08v2.05c-.57.18-1.11.27-1.61.27-.34 0-.67-.08-1-.25-.32-.16-.61-.4-.86-.69a3.7 3.7 0 0 1-.84-2.42 8.84 8.84 0 0 1-3.28 2.69 8.35 8.35 0 0 1-3.23.67c-.71 0-1.36-.11-1.96-.34a4.71 4.71 0 0 1-3.02-4.53c0-.96.28-1.73.84-2.32a6.93 6.93 0 0 1 2.14-1.49c.86-.4 1.78-.74 2.76-1.01.98-.27 1.91-.54 2.77-.81a9.13 9.13 0 0 0 2.14-.95c.56-.36.84-.82.84-1.39 0-1.01-.39-1.74-1.18-2.19a6.64 6.64 0 0 0-3.29-.68 6.1 6.1 0 0 0-2.84.62 2.59 2.59 0 0 0-1.4 2.09zM225 36.22h2.2V12H225z"/><path fill="#50b649" d="M242.63 15.23h4.18c1.08 0 2.1.16 3.03.49.91.32 1.71.82 2.37 1.49a7.27 7.27 0 0 1 1.56 2.58c.39 1.05.58 2.33.58 3.81 0 1.32-.19 2.53-.58 3.57a7.7 7.7 0 0 1-1.57 2.63 6.75 6.75 0 0 1-2.36 1.61c-.91.37-1.93.56-3.03.56h-4.18zm9.88-3.23c-1.39-.66-2.96-1-4.68-1H238v25.2h9.83a10.67 10.67 0 0 0 8.12-3.67 12.79 12.79 0 0 0 2.32-4.01c.55-1.54.83-3.21.83-4.96 0-1.7-.26-3.32-.77-4.83a12.18 12.18 0 0 0-2.26-4 10.73 10.73 0 0 0-3.56-2.73zM262 36.54h4.6V18H262zm0-20.7h4.6V11H262zm15.59 2.25a5.23 5.23 0 0 0-3.96.87v-.69H269v18.54h4.63V25.84c0-.46.07-.9.21-1.33.14-.41.34-.78.61-1.1a3 3 0 0 1 .97-.76c.37-.18.8-.27 1.29-.27.04 0 .33.03 1.58.47l.72.26V18.5l-.36-.12a6.11 6.11 0 0 0-1.06-.29m14.72 5.02c.56.56.92 1.22 1.1 2.01h-7.46a4.97 4.97 0 0 1 1.14-1.95 3.57 3.57 0 0 1 2.48-1.06c1.17 0 2.07.33 2.74 1zm.95-4.43a8.92 8.92 0 0 0-3.53-.68 8.5 8.5 0 0 0-6.4 2.81 9.01 9.01 0 0 0-1.73 2.98 11.2 11.2 0 0 0 .02 7.23 9.79 9.79 0 0 0 1.74 3.12 8.17 8.17 0 0 0 6.41 2.98c.94 0 1.87-.15 2.76-.45a8.04 8.04 0 0 0 4.32-3.45c.52-.84.91-1.79 1.16-2.85l.15-.65h-4.38l-.13.36c-.7 2-1.97 2.97-3.88 2.97-.49 0-.94-.12-1.37-.36a4.25 4.25 0 0 1-1.2-1.01 6.17 6.17 0 0 1-1.27-2.68h12.33v-1.96c0-1.27-.2-2.47-.6-3.56a7.99 7.99 0 0 0-4.4-4.8zm13.43 4.93c.34-.47.74-.84 1.21-1.11.45-.26.99-.39 1.59-.39.8 0 1.43.2 1.94.61.51.42.93 1.18 1.23 2.26l.11.38h4.78l-.12-.63c-.2-.95-.51-1.84-.94-2.65a7.44 7.44 0 0 0-3.98-3.56 8.29 8.29 0 0 0-3.02-.52 7.93 7.93 0 0 0-6.18 2.72 8.9 8.9 0 0 0-1.71 2.93c-.4 1.11-.6 2.33-.6 3.62 0 1.18.16 2.36.47 3.5a9.93 9.93 0 0 0 1.49 3.19 7.5 7.5 0 0 0 6.34 3.24 7.7 7.7 0 0 0 5.58-2.05 9.04 9.04 0 0 0 2.55-5.53l.08-.59h-4.81l-.09.43a5.92 5.92 0 0 1-1.14 2.61c-.53.66-1.2.98-2.06.98-.57 0-1.06-.14-1.49-.44a4.42 4.42 0 0 1-1.21-1.29 6.38 6.38 0 0 1-.8-1.86 8.82 8.82 0 0 1-.28-2.19c0-.7.1-1.37.28-2 .18-.63.44-1.18.78-1.66m20.96 8.83c-.58.15-.88.2-1.04.22-.63.07-.92.04-1.14-.14-.04-.04-.17-.2-.17-.77v-9.76h2.59v-4.08h-2.59V13h-4.67v4.91H318v4.08h2.63v10.65c0 .75.12 1.39.36 1.9.24.53.59.97 1.02 1.3.41.33.9.57 1.44.71.52.14 1.06.22 1.63.22a11.33 11.33 0 0 0 2.85-.37l.39-.11v-4.02zM31.4 14.12c0 .22-.09.43-.27.6-.21.2-.5.33-.78.33-1.49-.03-4.69.26-4.99.29-3.46.35-6.32 1.63-8.27 3.71a12.33 12.33 0 0 0-2.51 4.75c-.85 3.58-.14 6.75 2.12 9.43 3.25 3.84 8.53 4.56 12.41 4.48.53-.02 6.81-.13 9.58-.16a.92.92 0 0 1 .94.92l-.03 4a.94.94 0 0 1-.94.92H28.53c-1.83 0-3.3-.11-4.62-.33a21.56 21.56 0 0 1-10.2-4.45c-2.45-2.03-4.22-5.27-4.85-8.87-.72-4.13.37-8.9 2.9-12.75 3.65-5.53 10.94-7.46 17.11-7.46.57 0 1.13.01 1.68.05a.9.9 0 0 1 .85.91zm-5.68 10.53h-.04c-1.62 0-2.07 1.19-2.09 1.82a1.8 1.8 0 0 0 .54 1.39c.79.77 2.15.73 2.2.72l12.36.02c.25 0 .49.1.66.28.18.17.28.41.27.66l-.04 4.26c0 .5-.42.91-.93.91H27.82c-1.5 0-2.8-.18-3.96-.56-5.98-1.92-5.73-6.83-5.71-7.05a7.36 7.36 0 0 1 3.17-6.16c2.45-1.7 5.02-1.96 7.43-1.98 4.47-.05 4.47-.05 4.47-.36v-8.06c0-.72.59-1.31 1.33-1.31h4.09c.52 0 .93.41.94.92l.01 13.5c0 .53-.44.96-.97.96-3.69.02-12.34.06-12.9.04zM5.91 0A5.88 5.88 0 0 0 0 5.84v39.7a5.88 5.88 0 0 0 5.91 5.84h40.23a5.88 5.88 0 0 0 5.92-5.84V5.84A5.88 5.88 0 0 0 46.14 0z"/></svg>