<svg xmlns="http://www.w3.org/2000/svg" width="272" height="44" viewBox="0 0 272 44"><title>CD Logo</title><path d="M51.85 19.54c0 1.55.2 2.9.61 4.05.41 1.14.95 2.09 1.61 2.84.66.76 1.41 1.31 2.25 1.67.84.36 1.7.54 2.56.54.91 0 1.73-.15 2.47-.47.73-.32 1.37-.74 1.91-1.26.54-.52.98-1.12 1.33-1.8.34-.68.58-1.38.71-2.1h1.88c-.19 1.05-.52 2.03-.99 2.95-.46.92-1.04 1.72-1.73 2.41-.69.68-1.5 1.22-2.43 1.62-.93.39-1.98.59-3.15.59-1.36 0-2.59-.26-3.68-.76-1.09-.5-2.02-1.22-2.8-2.17-.78-.95-1.37-2.11-1.78-3.47-.41-1.37-.62-2.92-.62-4.67 0-1.33.2-2.63.6-3.9.4-1.26.98-2.39 1.73-3.37.76-.98 1.68-1.77 2.78-2.36C56.2 9.29 57.44 9 58.85 9c1.17 0 2.21.16 3.14.49.93.33 1.74.78 2.42 1.34.68.57 1.26 1.25 1.73 2.03.48.79.85 1.65 1.1 2.59h-1.97c-.54-1.53-1.33-2.66-2.37-3.4-1.04-.75-2.39-1.12-4.05-1.12-1.04 0-1.98.24-2.84.71-.85.47-1.59 1.09-2.2 1.88-.62.78-1.1 1.7-1.44 2.73-.35 1.04-.52 2.14-.52 3.29zM72.11 24.81c.21.68.52 1.28.9 1.8.39.51.87.91 1.45 1.21.57.29 1.21.44 1.93.44.71 0 1.35-.15 1.92-.44.58-.3 1.06-.7 1.46-1.21.4-.52.71-1.12.93-1.8.21-.69.32-1.43.32-2.21 0-.79-.11-1.53-.32-2.21-.22-.69-.53-1.29-.93-1.81-.4-.51-.88-.92-1.46-1.22-.57-.31-1.21-.46-1.92-.46-.72 0-1.36.15-1.93.46-.58.3-1.06.71-1.45 1.22-.38.52-.69 1.12-.9 1.81-.22.68-.33 1.42-.33 2.21 0 .78.11 1.52.33 2.21zm-1.69-5.16c.28-.92.69-1.72 1.23-2.41.54-.68 1.21-1.23 2-1.63.79-.41 1.7-.61 2.74-.61 1.03 0 1.95.2 2.75.61.8.4 1.48.95 2.03 1.63.55.69.97 1.49 1.26 2.41.29.92.44 1.9.44 2.95 0 1.04-.15 2.03-.44 2.94-.29.92-.71 1.72-1.26 2.41-.55.69-1.23 1.23-2.03 1.62-.8.39-1.72.59-2.75.59-1.04 0-1.95-.2-2.74-.59-.79-.39-1.46-.93-2-1.62-.54-.69-.95-1.49-1.23-2.41-.28-.91-.42-1.9-.42-2.94 0-1.05.14-2.03.42-2.95zM85 15.29h1.82v2.3c.75-1.03 1.55-1.71 2.39-2.05.85-.34 1.61-.51 2.31-.51.67 0 1.32.22 1.96.64.63.43 1.21 1.1 1.73 2.02.74-1.05 1.53-1.76 2.4-2.13.86-.37 1.67-.56 2.43-.56.65 0 1.24.11 1.78.34.54.23 1.01.54 1.4.94.39.39.69.86.91 1.41.21.54.32 1.13.32 1.76v10.48h-1.82v-9.85c0-.62-.09-1.12-.27-1.53-.19-.4-.42-.72-.7-.96-.28-.24-.6-.41-.97-.51-.37-.1-.73-.15-1.07-.15-.45 0-.92.1-1.39.3-.48.19-.91.47-1.28.83-.38.36-.69.79-.93 1.28-.24.49-.36 1.02-.36 1.59v9h-1.81v-9.85c0-.62-.09-1.12-.28-1.53-.18-.4-.41-.72-.69-.96-.28-.24-.59-.41-.93-.51-.33-.1-.65-.15-.95-.15-.59 0-1.14.13-1.66.39-.51.27-.96.6-1.33 1-.36.41-.65.85-.87 1.35-.22.49-.32.95-.32 1.39v8.87H85zM107 15.29h1.82v2.3c.75-1.03 1.55-1.71 2.39-2.05.85-.34 1.61-.51 2.31-.51.67 0 1.32.22 1.96.64.63.43 1.21 1.1 1.73 2.02.74-1.05 1.53-1.76 2.4-2.13.86-.37 1.67-.56 2.43-.56.65 0 1.24.11 1.78.34.54.23 1.01.54 1.4.94.39.39.69.86.91 1.41.21.54.32 1.13.32 1.76v10.48h-1.82v-9.85c0-.62-.09-1.12-.27-1.53-.19-.4-.42-.72-.7-.96-.28-.24-.6-.41-.97-.51-.37-.1-.73-.15-1.07-.15-.45 0-.92.1-1.39.3-.48.19-.91.47-1.28.83-.38.36-.69.79-.93 1.28-.24.49-.36 1.02-.36 1.59v9h-1.81v-9.85c0-.62-.09-1.12-.28-1.53-.18-.4-.41-.72-.69-.96-.28-.24-.59-.41-.93-.51-.33-.1-.65-.15-.95-.15-.59 0-1.14.13-1.66.39-.51.27-.96.6-1.33 1-.36.41-.65.85-.87 1.35-.22.49-.32.95-.32 1.39v8.87H107zM132.64 17.28c-.52.25-.98.57-1.37.98-.39.4-.7.87-.94 1.41-.23.53-.37 1.07-.42 1.62h8.92c-.03-.61-.14-1.19-.36-1.72-.22-.54-.52-1-.91-1.39-.39-.4-.86-.71-1.41-.94-.55-.23-1.16-.34-1.83-.34-.6 0-1.17.13-1.68.38zm-2.73 5.71c.05.65.19 1.3.44 1.95.25.64.57 1.21.97 1.7s.87.89 1.41 1.19c.54.31 1.13.46 1.75.46 2.21 0 3.63-.97 4.28-2.91h1.65c-.17.76-.44 1.45-.82 2.05-.38.6-.83 1.1-1.36 1.5-.53.41-1.12.72-1.75.94-.64.21-1.31.32-2 .32-.99 0-1.89-.21-2.69-.64-.8-.42-1.48-.99-2.04-1.7s-.99-1.54-1.3-2.49c-.3-.95-.45-1.95-.45-2.99 0-.99.15-1.92.45-2.82.31-.89.74-1.67 1.3-2.34.56-.67 1.24-1.2 2.03-1.6.78-.41 1.68-.61 2.67-.61.95 0 1.82.18 2.59.54.78.36 1.44.86 1.98 1.49s.96 1.39 1.25 2.26c.29.87.44 1.81.44 2.81v.89zM143 15.26h1.82v2.23c.58-.79 1.17-1.4 1.76-1.84.6-.43 1.27-.65 2.03-.65.13 0 .27.01.42.03.15.02.29.06.42.1v2.16c-.32-.11-.63-.16-.91-.16-.58 0-1.1.11-1.57.33-.46.21-.86.5-1.18.86-.33.36-.57.78-.73 1.25-.16.47-.24.96-.24 1.49v8.84H143zM160.92 19.75c-.28-1.05-.72-1.79-1.33-2.21-.61-.43-1.4-.64-2.4-.64-.69 0-1.31.15-1.86.44-.55.3-1.02.69-1.4 1.2-.37.5-.66 1.08-.86 1.73-.19.66-.29 1.34-.29 2.06 0 .77.11 1.51.31 2.21.21.71.49 1.35.86 1.9.37.56.82 1.01 1.36 1.35.54.33 1.15.5 1.82.5.54 0 1.02-.09 1.46-.28.43-.18.8-.44 1.11-.76.32-.33.57-.71.77-1.13.19-.43.34-.88.45-1.36h2.01c-.22 1.7-.83 3.04-1.85 4.01-1.01.97-2.35 1.46-4.02 1.46-1.06 0-1.96-.24-2.72-.71-.76-.47-1.38-1.08-1.88-1.83-.5-.76-.87-1.6-1.1-2.54-.24-.94-.36-1.88-.36-2.82 0-1.02.15-1.98.44-2.88.29-.89.71-1.67 1.25-2.32.54-.66 1.18-1.17 1.94-1.56.76-.38 1.61-.57 2.56-.57.82 0 1.56.12 2.21.36.64.24 1.21.57 1.68 1 .48.42.87.93 1.17 1.51.3.57.52 1.2.65 1.88zM166 30.5h1.82V15.86H166zm0-20.5h1.82v2.52H166zM180.5 21.61c-.26.33-.63.6-1.12.81-.49.2-1.02.39-1.59.55-.57.17-1.15.33-1.75.48-.59.15-1.13.34-1.62.55-.49.22-.88.48-1.18.79-.31.31-.46.69-.46 1.15 0 .43.08.8.23 1.09.15.3.36.54.62.72.26.19.54.32.86.41.31.09.63.13.95.13.93 0 1.84-.27 2.72-.82.89-.54 1.67-1.37 2.34-2.48zm-9.11-2.42c.04-.72.23-1.35.57-1.88.33-.54.76-.97 1.28-1.31.52-.34 1.09-.59 1.73-.75.64-.17 1.27-.25 1.9-.25.69 0 1.36.08 2.02.25.66.16 1.25.41 1.75.75.51.34.92.78 1.22 1.33.3.54.45 1.21.45 1.99v7.73c0 .3.12.59.34.85.23.26.52.39.86.39.13 0 .23 0 .31-.01.08-.01.16-.03.24-.05v1.73c-.47.16-.92.23-1.33.23-.28 0-.55-.07-.82-.21-.27-.14-.51-.34-.71-.59-.21-.25-.38-.55-.51-.9s-.19-.73-.19-1.15c-.91 1.14-1.81 1.9-2.71 2.28-.9.38-1.79.57-2.67.57-.59 0-1.13-.1-1.62-.29-.5-.2-.93-.48-1.3-.84s-.66-.79-.88-1.29c-.21-.5-.32-1.07-.32-1.7 0-.81.23-1.47.7-1.97.46-.5 1.05-.92 1.76-1.26.72-.34 1.48-.62 2.29-.85.81-.23 1.57-.46 2.28-.69.72-.23 1.31-.49 1.77-.8.47-.3.7-.7.7-1.18 0-.85-.33-1.47-.97-1.85-.65-.38-1.56-.57-2.73-.57-.91 0-1.69.17-2.35.52-.66.35-1.04.94-1.15 1.77zM186 30.5h1.82V10H186z" fill="#fff"/><path d="M200.83 13.58h3.45c.9 0 1.74.14 2.51.41.75.27 1.41.7 1.95 1.27.55.57.99 1.3 1.3 2.18.32.89.48 1.97.48 3.22 0 1.12-.16 2.14-.48 3.03-.31.87-.75 1.62-1.3 2.22-.55.59-1.21 1.05-1.95 1.36-.76.32-1.6.48-2.51.48h-3.45zm8.17-2.73c-1.15-.57-2.45-.85-3.88-.85H197v21.32h8.12c1.36 0 2.63-.28 3.77-.83 1.15-.55 2.14-1.31 2.95-2.27s1.46-2.1 1.92-3.4c.45-1.3.69-2.71.69-4.19 0-1.44-.22-2.82-.64-4.09-.43-1.28-1.06-2.42-1.87-3.39-.81-.97-1.8-1.74-2.94-2.3zM217 30.69h3.8V15H217zM217 14.1h3.8V10H217zM230.1 15.07c-.27-.05-.48-.07-.66-.07-.69 0-1.32.13-1.86.39-.25.12-.5.26-.75.42v-.58H223v15.69h3.83v-9.29c0-.38.06-.76.18-1.12.11-.35.28-.66.5-.93.22-.27.49-.49.8-.64.3-.16.66-.23 1.06-.23.04 0 .28.02 1.31.4l.59.21v-3.89l-.29-.11c-.32-.12-.62-.2-.88-.25M241.35 19.33c.46.47.76 1.03.91 1.69h-6.16c.06-.22.15-.45.25-.66.19-.37.42-.71.69-.99.26-.27.57-.49.93-.65.35-.16.73-.24 1.12-.24.96 0 1.7.28 2.26.85zm.78-3.75c-.86-.39-1.84-.58-2.91-.58-1.1 0-2.11.22-3.01.65-.9.43-1.67 1.01-2.29 1.73-.61.72-1.1 1.56-1.42 2.52-.33.95-.5 1.95-.5 2.98 0 1.09.17 2.15.51 3.14.34.99.82 1.88 1.44 2.64.62.77 1.39 1.38 2.28 1.83.9.46 1.92.69 3.02.69.78 0 1.54-.13 2.28-.38.74-.26 1.41-.64 2.02-1.13.59-.49 1.12-1.09 1.55-1.79.44-.71.76-1.52.96-2.41l.13-.55h-3.62l-.11.3c-.58 1.69-1.63 2.52-3.21 2.52-.4 0-.77-.1-1.13-.31-.37-.21-.71-.5-.99-.85-.3-.37-.55-.81-.75-1.29-.13-.32-.24-.65-.31-.99h10.2v-1.65c0-1.07-.17-2.09-.5-3.02-.33-.93-.8-1.75-1.41-2.44-.61-.68-1.36-1.23-2.23-1.61zM253.71 19.75c.27-.4.61-.71.99-.94.38-.22.82-.33 1.32-.33.66 0 1.18.17 1.6.52.43.35.77.99 1.02 1.9l.09.33h3.96l-.11-.54c-.16-.8-.42-1.55-.77-2.24-.36-.7-.81-1.31-1.36-1.81-.54-.51-1.2-.91-1.93-1.2-.74-.29-1.58-.44-2.5-.44-1.05 0-2.03.21-2.89.61-.87.41-1.61.98-2.22 1.69-.61.7-1.08 1.54-1.41 2.48-.33.94-.5 1.97-.5 3.06 0 1 .13 2 .39 2.97.26.98.67 1.89 1.23 2.69.56.82 1.29 1.48 2.15 1.98.88.51 1.91.77 3.09.77 1.9 0 3.46-.59 4.62-1.74 1.15-1.13 1.85-2.71 2.11-4.68l.06-.5h-3.98l-.07.36c-.16.87-.48 1.61-.95 2.22-.43.55-.99.83-1.69.83-.48 0-.88-.13-1.24-.38-.38-.27-.72-.64-1-1.09-.29-.46-.51-.99-.66-1.57-.15-.6-.23-1.22-.23-1.86 0-.58.08-1.16.23-1.69.15-.53.36-1 .65-1.4M270.98 27.45c-.48.13-.73.17-.86.19-.53.05-.77.03-.94-.12-.03-.04-.14-.17-.14-.65V18.6h2.14v-3.44h-2.14V11h-3.87v4.16H263v3.44h2.17v9.02c0 .63.1 1.17.3 1.61.2.45.49.81.84 1.1.35.27.75.47 1.2.6.42.12.88.18 1.34.18.34 0 .72-.02 1.12-.07.41-.05.83-.13 1.24-.24l.32-.09V27.3zM25.96 11.95c0 .18-.08.36-.22.51-.17.17-.41.27-.65.27-1.23-.02-3.88.22-4.12.25-2.87.3-5.23 1.38-6.84 3.14-.84.91-1.77 2.72-2.07 4.02-.71 3.03-.12 5.71 1.75 7.98 2.68 3.25 7.05 3.86 10.26 3.78.44-.01 5.63-.1 7.92-.13.21-.01.4.08.55.23.14.14.22.34.22.55l-.02 3.39c-.01.42-.35.77-.78.77h-8.38c-1.51 0-2.72-.09-3.81-.28-3.3-.57-6.22-1.87-8.43-3.76-2.03-1.72-3.49-4.46-4.01-7.5-.6-3.5.3-7.54 2.4-10.79 3.01-4.68 9.03-6.32 14.14-6.32.47 0 .93.02 1.39.04.39.03.7.37.7.78zm-4.7 8.91h-.03c-1.34 0-1.71 1-1.72 1.54-.01.48.14.87.44 1.18.65.64 1.78.61 1.82.61l10.21.01c.21 0 .41.08.55.23.15.15.23.35.23.56l-.03 3.61c-.01.42-.35.77-.78.77H23c-1.24 0-2.31-.15-3.27-.47-4.95-1.63-4.74-5.78-4.73-5.97 0-2.12.95-4.02 2.63-5.21 2.03-1.44 4.15-1.66 6.14-1.68 3.69-.04 3.69-.04 3.69-.3V8.92c0-.61.5-1.11 1.1-1.11h3.39c.42 0 .77.35.77.78l.01 11.42c0 .45-.36.81-.8.82-3.05.01-10.2.04-10.67.03zM4.89 0C2.19 0 0 2.22 0 4.94v33.59c0 2.73 2.19 4.94 4.89 4.94h33.26c2.7 0 4.89-2.21 4.89-4.94V4.94c0-2.72-2.19-4.94-4.89-4.94z" fill="#50b649"/></svg>