<svg id="SvgjsSvg1073" xmlns="http://www.w3.org/2000/svg" viewBox="-378.4 328 43 43.5"><style>.st0{fill:#50B649;}</style><title>CD Logo</title><path id="SvgjsPath1092" class="st0" d="M-352.5 340c0 .2-.1.4-.2.5-.2.2-.4.3-.6.3-1.2 0-3.9.2-4.1.3-2.9.3-5.2 1.4-6.8 3.1-.8.9-1.8 2.7-2.1 4-.7 3-.1 5.7 1.8 8 2.7 3.3 7 3.9 10.3 3.8.4 0 5.6-.1 7.9-.1.2 0 .4.1.5.2.1.1.2.3.2.5v3.4c0 .4-.3.8-.8.8h-8.4c-1.5 0-2.7-.1-3.8-.3-3.3-.6-6.2-1.9-8.4-3.8-2-1.7-3.5-4.5-4-7.5-.6-3.5.3-7.5 2.4-10.8 3-4.7 9-6.3 14.1-6.3h1.4c.4 0 .7.4.7.8v3.1zm-4.7 8.9c-1.4 0-1.7 1-1.8 1.5 0 .5.1.9.4 1.2.6.6 1.8.6 1.8.6h10.2c.2 0 .4.1.6.2.1.2.2.4.2.6v3.6c0 .4-.3.8-.8.8h-9c-1.2 0-2.3-.1-3.3-.5-4.9-1.6-4.7-5.8-4.7-6 0-2.1 1-4 2.6-5.2 2-1.4 4.2-1.7 6.1-1.7 3.7 0 3.7 0 3.7-.3v-6.8c0-.6.5-1.1 1.1-1.1h3.4c.4 0 .8.4.8.8V348c0 .4-.4.8-.8.8-2.9 0-10 .1-10.5.1zm-16.3-20.9c-2.7 0-4.9 2.2-4.9 4.9v33.6c0 2.7 2.2 4.9 4.9 4.9h33.3c2.7 0 4.9-2.2 4.9-4.9v-33.6c0-2.7-2.2-4.9-4.9-4.9h-33.3z"/></svg>